# Blender v2.79 (sub 0) OBJ File: ''
# www.blender.org
mtllib Pedestal.mtl
o Pedestal_3_Cube.189
v -0.791913 -0.794911 1.061393
v -0.598507 0.633663 0.849199
v -0.791913 -0.794911 -0.969998
v -0.581167 0.633663 -0.759461
v 1.239478 -0.794911 1.061393
v 1.031563 0.633663 0.872857
v 1.239478 -0.794911 -0.969998
v 1.013074 0.633663 -0.778259
v -0.702152 1.236480 0.952844
v -0.684813 1.236480 -0.863106
v 1.116720 1.236480 -0.881905
v 1.135209 1.236480 0.976503
v -0.791913 1.236480 1.061393
v -0.791913 1.236480 -0.969998
v 1.239478 1.236480 -0.969998
v 1.239478 1.236480 1.061393
vn 0.0000 1.0000 0.0000
vn 0.0000 -1.0000 0.0000
vn 0.9855 0.1694 0.0100
vn 0.0109 0.1694 0.9855
vn -0.9855 0.1694 0.0104
vn 0.0134 0.1694 -0.9854
vn 0.0000 0.0000 1.0000
vn 1.0000 0.0000 0.0000
vn 0.0000 0.0000 -1.0000
vn -1.0000 0.0000 0.0000
usemtl Pedestal_Black_2
s off
f 13//1 9//1 10//1 14//1
f 14//1 10//1 11//1 15//1
f 15//1 11//1 12//1 16//1
f 16//1 12//1 9//1 13//1
f 3//2 7//2 5//2 1//2
f 8//1 4//1 2//1 6//1
f 2//3 4//3 10//3 9//3
f 4//4 8//4 11//4 10//4
f 8//5 6//5 12//5 11//5
f 6//6 2//6 9//6 12//6
f 5//7 16//7 13//7 1//7
f 7//8 15//8 16//8 5//8
f 3//9 14//9 15//9 7//9
f 1//10 13//10 14//10 3//10
