# Blender v2.79 (sub 0) OBJ File: 'Wand.blend'
# www.blender.org
mtllib Wand.mtl
o Cone
v 0.042673 1.885196 -0.277684
v -0.099942 1.885196 -0.135068
v 0.042673 1.885196 0.007547
v 0.185289 1.885196 -0.135068
v 0.042673 1.599965 -0.135068
v 0.042673 1.884312 -0.277684
v 0.185289 1.884312 -0.135068
v 0.042673 1.884312 0.007547
v -0.099942 1.884312 -0.135068
v 0.042673 2.169543 -0.135068
vn -0.6667 -0.3333 -0.6667
vn -0.6667 -0.3333 0.6667
vn 0.6667 -0.3333 0.6667
vn 0.6667 -0.3333 -0.6667
vn 0.0000 1.0000 0.0000
vn 0.6667 0.3333 -0.6667
vn 0.6667 0.3333 0.6667
vn -0.6667 0.3333 0.6667
vn -0.6667 0.3333 -0.6667
vn 0.0000 -1.0000 0.0000
usemtl Crystal_4
s off
f 1//1 5//1 2//1
f 2//2 5//2 3//2
f 3//3 5//3 4//3
f 4//4 5//4 1//4
f 1//5 2//5 3//5 4//5
f 6//6 10//6 7//6
f 7//7 10//7 8//7
f 8//8 10//8 9//8
f 9//9 10//9 6//9
f 6//10 7//10 8//10 9//10
o Cube_Cube.001
v -0.095065 0.710172 -0.172151
v -0.061154 0.859581 -0.083333
v 0.038900 0.807657 -0.132157
v -0.003528 0.795404 -0.229806
v 0.040290 1.613254 -0.129002
v -0.075031 -0.916642 -0.125171
v -0.057048 0.488483 -0.160178
v 0.139345 0.507812 -0.136972
v 0.027374 0.526190 -0.049120
v 0.048628 0.536004 -0.249475
v -0.091111 0.916574 -0.181884
v 0.008214 1.220615 -0.066655
v -0.016998 1.224565 -0.145687
v 0.061560 1.209768 -0.171242
v 0.087429 1.209958 -0.091732
v -0.058375 -0.457102 -0.158427
v 0.016930 -0.454443 -0.063068
v 0.112271 -0.459023 -0.138240
v -0.040428 0.026096 -0.157341
v 0.025806 0.025035 -0.073339
v 0.109797 0.023692 -0.139582
v 0.043563 0.024753 -0.223584
v -0.115045 -0.885357 -0.139910
v 0.003322 -0.886270 0.010723
v 0.154313 -0.895630 -0.107706
v 0.032773 -0.903931 -0.248999
v -0.067140 0.699955 -0.223535
v -0.041232 0.488216 -0.083310
v 0.105820 0.512721 -0.065829
v 0.123315 0.512843 -0.213985
v -0.023781 0.488297 -0.231236
v -0.049014 0.912809 -0.224352
v 0.094097 1.215531 -0.138112
v -0.044569 -0.452403 -0.091781
v 0.083397 -0.451675 -0.076916
v 0.093637 -0.081071 -0.198495
v -0.091276 -0.882309 -0.036297
v 0.107681 -0.884439 -0.013486
v 0.129777 -0.896248 -0.212371
v -0.014004 -0.069966 -0.211397
v -0.106761 0.875473 -0.121645
v -0.002690 0.818566 -0.081804
v 0.037498 0.799493 -0.194173
v 0.054162 1.219981 -0.059757
v -0.024480 1.218356 -0.099580
v 0.015621 1.215595 -0.176518
v -0.068608 -0.894038 -0.234923
v -0.028197 0.022722 -0.098908
v 0.084320 0.024097 -0.085512
v 0.117876 1.760041 -0.131840
v 0.023633 1.572551 -0.073842
v 0.055381 1.617996 -0.069487
v 0.042737 1.667743 -0.091049
v 0.027012 1.406084 -0.067760
v 0.001142 1.413160 -0.093974
v 0.050217 1.406310 -0.172268
v 0.047729 1.581394 -0.168566
v -0.049623 1.788232 -0.140551
vn -0.9690 0.0069 -0.2470
vn -0.1235 -0.9705 -0.2071
vn 0.4705 0.2002 -0.8594
vn -0.6600 -0.0988 0.7447
vn 0.0558 0.1166 0.9916
vn -0.1609 0.0424 -0.9861
vn 0.6339 0.1844 -0.7511
vn 0.9929 -0.1191 -0.0068
vn -0.6197 0.0986 0.7786
vn -0.6757 0.2536 -0.6922
vn 0.6555 0.0038 -0.7552
vn -0.7093 0.1041 0.6972
vn -0.6316 0.2387 -0.7377
vn -0.9663 0.1373 0.2176
vn 0.2205 0.1575 0.9626
vn 0.9706 0.0775 -0.2280
vn 0.9986 0.0448 -0.0281
vn -0.4221 0.0281 0.9061
vn -0.9777 0.0358 0.2067
vn 0.9624 0.0042 -0.2714
vn -0.2531 0.0294 -0.9670
vn -0.5572 -0.8063 -0.1987
vn -0.7993 0.0270 -0.6004
vn 0.0908 -0.9957 -0.0196
vn -0.1058 0.0052 -0.9944
vn 0.0707 -0.9833 0.1679
vn -0.9116 -0.0327 -0.4098
vn -0.1985 -0.9259 0.3214
vn -0.9788 -0.0341 0.2020
vn -0.4265 -0.0423 0.9035
vn 0.2013 -0.0481 0.9784
vn 0.9022 -0.0571 0.4275
vn 0.9800 -0.0561 -0.1909
vn 0.3967 -0.0468 -0.9167
vn -0.1830 -0.0428 -0.9822
vn -0.9645 -0.1458 0.2201
vn -0.8871 -0.1708 -0.4288
vn 0.9441 0.3051 -0.1252
vn 0.2280 0.1313 0.9648
vn -0.4513 0.0120 0.8923
vn 0.8294 0.2949 0.4744
vn 0.1561 0.1173 -0.9807
vn -0.2362 -0.0130 -0.9716
vn 0.7449 -0.1551 0.6489
vn -0.9672 0.2378 -0.0890
vn -0.0942 -0.0349 0.9949
vn 0.6653 -0.1346 0.7344
vn 0.9810 -0.1500 0.1230
vn 0.2036 0.0172 0.9789
vn -0.9615 0.2458 -0.1229
vn 0.7137 -0.0027 -0.7004
vn 0.7081 0.1466 0.6907
vn 0.9793 0.1289 0.1563
vn 0.4270 -0.2661 -0.8642
vn -0.1441 0.1667 0.9754
vn -0.6621 0.1293 -0.7382
vn -0.9789 0.1502 -0.1386
vn 0.9698 0.2433 -0.0136
vn 0.1271 0.1099 -0.9858
vn -0.8905 0.0986 -0.4442
vn -0.4334 0.1650 0.8859
vn 0.8956 0.1163 0.4294
vn -0.9574 0.0714 -0.2799
vn -0.9726 0.1305 0.1923
vn -0.4132 0.1606 0.8964
vn 0.1955 0.1530 0.9687
vn 0.9042 0.1112 0.4124
vn 0.3509 0.0315 -0.9359
vn -0.1339 0.0371 -0.9903
vn -0.9791 0.0367 0.2002
vn -0.8731 0.0335 -0.4864
vn 0.9048 0.0059 0.4258
vn -0.4287 0.0273 0.9030
vn 0.4788 0.0185 -0.8777
vn -0.6451 -0.7450 0.1699
vn -0.7763 0.5063 0.3754
vn -0.4801 0.0223 0.8769
vn -0.4520 0.2457 0.8575
vn -0.9622 0.1483 -0.2285
vn -0.7056 0.0741 0.7047
vn 0.9953 -0.0798 -0.0542
vn -0.2429 0.0171 -0.9699
vn -0.7230 -0.1744 0.6684
vn 0.6945 0.0310 -0.7189
usemtl Wand_4
s off
f 11//11 51//11 21//11
f 16//12 57//12 36//12
f 20//13 53//13 40//13
f 12//14 51//14 19//14
f 19//15 52//15 12//15
f 20//16 37//16 14//16
f 14//17 53//17 20//17
f 13//18 53//18 25//18
f 12//19 55//19 51//19
f 21//20 56//20 42//20
f 24//21 53//21 14//21
f 55//22 12//22 22//22
f 23//23 56//23 21//23
f 33//24 47//24 26//24
f 34//25 48//25 27//25
f 35//26 49//26 28//26
f 28//27 49//27 46//27
f 27//28 58//28 44//28
f 26//29 58//29 29//29
f 28//30 46//30 31//30
f 36//31 50//31 32//31
f 33//32 57//32 16//32
f 37//33 11//33 21//33 42//33
f 49//34 35//34 16//34 36//34
f 14//35 37//35 42//35
f 48//36 34//36 16//36 35//36
f 50//37 29//37 17//37 41//37
f 16//38 34//38 47//38
f 58//39 38//39 17//39 29//39
f 58//40 30//40 19//40 38//40
f 59//41 39//41 19//41 30//41
f 59//42 31//42 18//42 39//42
f 46//43 40//43 18//43 31//43
f 46//44 32//44 20//44 40//44
f 50//45 41//45 20//45 32//45
f 51//46 11//46 17//46 38//46
f 37//47 41//47 17//47 11//47
f 13//48 18//48 40//48 53//48
f 19//49 39//49 52//49
f 19//50 51//50 38//50
f 39//51 18//51 13//51 52//51
f 56//52 24//52 14//52 42//52
f 41//53 37//53 20//53
f 13//54 25//54 52//54
f 51//55 55//55 21//55
f 52//56 54//56 22//56 12//56
f 54//57 52//57 25//57
f 25//58 53//58 43//58
f 59//59 30//59 27//59 45//59
f 23//60 21//60 55//60
f 24//61 43//61 53//61
f 15//62 54//62 25//62
f 25//63 43//63 15//63
f 64//64 63//64 60//64 62//64
f 22//65 54//65 15//65
f 15//66 56//66 23//66
f 23//67 55//67 15//67
f 15//68 43//68 67//68 68//68
f 24//69 56//69 15//69
f 33//70 26//70 57//70
f 34//71 27//71 47//71
f 35//72 28//72 48//72
f 50//73 57//73 26//73
f 26//74 47//74 44//74
f 44//75 47//75 27//75
f 27//76 48//76 45//76
f 45//77 48//77 28//77
f 46//78 49//78 36//78
f 36//79 57//79 50//79
f 26//80 44//80 58//80
f 26//81 29//81 50//81
f 59//82 45//82 28//82 31//82
f 27//83 30//83 58//83
f 36//84 32//84 46//84
f 33//85 16//85 47//85
f 60//86 61//86 62//86
f 65//87 64//87 62//87 61//87
f 63//88 65//88 61//88 60//88
f 15//89 55//89 65//89 63//89
f 55//90 22//90 64//90 65//90
f 22//91 15//91 63//91 64//91
f 68//92 67//92 66//92
f 24//93 15//93 68//93 66//93
f 43//94 24//94 66//94 67//94
